<svg xmlns="http://www.w3.org/2000/svg" version="1.1" xmlns:xlink="http://www.w3.org/1999/xlink" xmlns:svgjs="http://svgjs.dev/svgjs" width="2000" height="424" viewBox="0 0 2000 424"><g transform="matrix(1,0,0,1,-1.2110454075857433,-0.5029197912884911)"><svg viewBox="0 0 396 84" data-background-color="#85350d" preserveAspectRatio="xMidYMid meet" height="424" width="2000" xmlns="http://www.w3.org/2000/svg" xmlns:xlink="http://www.w3.org/1999/xlink"><g id="tight-bounds" transform="matrix(1,0,0,1,0.23978699070198672,0.0996350529911183)"><svg viewBox="0 0 395.52 83.80072989401779" height="83.80072989401779" width="395.52"><g><svg viewBox="0 0 445.6368848448426 94.41923598729309" height="83.80072989401779" width="395.52"><g transform="matrix(1,0,0,1,89.51636484484263,0)"><svg viewBox="0 0 356.12052 94.41923598729309" height="94.41923598729309" width="356.12052"><g><path d="M0 94.419v-94.419h356.121v94.419z" fill="#f4de21" stroke="transparent" stroke-width="0" rx="0%" data-fill-palette-color="tertiary"></path><path d="M3.283 91.136v-87.853h349.554v87.853z" fill="#7a310d" stroke="transparent" stroke-width="0" rx="0%" data-fill-palette-color="quaternary"></path><path d="M9.85 84.569v-74.719h336.421v74.719z" fill="#f4de21" stroke="transparent" stroke-width="0" data-fill-palette-color="tertiary"></path></g><g transform="matrix(1,0,0,1,19.69974,19.69974)" id="textblocktransform"><svg viewBox="0 0 316.72104 55.019755987293095" height="55.019755987293095" width="316.72104" id="textblock"><g><svg viewBox="0 0 316.72104 55.019755987293095" height="55.019755987293095" width="316.72104"><g transform="matrix(1,0,0,1,0,0)"><svg width="316.72104" viewBox="-2.7 -40.8 299.02 51.949999999999996" height="55.019755987293095" data-palette-color="#7a310d"><path d="M25.8 0L16.75 0 16.4-7.25 8.6-7.25 6.35 0-2.7 0 11.2-34.7 21.65-34.7 25.8 0ZM15.4-28.9L10.6-13.55 16.1-13.55 15.4-28.9ZM33.6 0.9Q30.85 0.9 29.35-0.78 27.85-2.45 27.85-5.4L27.85-5.4Q27.85-6.25 28-7.2L28-7.2 30.7-26.6 39.05-26.6 36.55-8.55Q36.5-8.2 36.5-7.7L36.5-7.7Q36.5-6.2 37.6-6.2L37.6-6.2Q39.15-6.2 41.15-9.55L41.15-9.55 43.55-26.6 51.9-26.6 48.15 0 40.9 0 41.05-3.65Q39.5-1.5 37.7-0.3 35.9 0.9 33.6 0.9L33.6 0.9ZM71.85-38L80.1-37.15 74.9 0 67.5 0 67.6-3.35Q66.2-1.3 64.5-0.2 62.8 0.9 60.45 0.9L60.45 0.9Q56.85 0.9 54.95-1.73 53.05-4.35 53.05-9.15L53.05-9.15Q53.05-13.6 54.37-17.82 55.7-22.05 58.37-24.8 61.05-27.55 64.9-27.55L64.9-27.55Q68.15-27.55 70.05-25.15L70.05-25.15 71.85-38ZM66.7-21.35Q64.95-21.35 63.8-19.38 62.65-17.4 62.12-14.58 61.6-11.75 61.6-9.2L61.6-9.2Q61.6-7 62.12-6.13 62.65-5.25 63.65-5.25L63.65-5.25Q65.5-5.25 67.8-9.1L67.8-9.1 69.3-19.85Q68.35-21.35 66.7-21.35L66.7-21.35ZM82.89-26.6L91.24-26.6 87.54 0 79.19 0 82.89-26.6ZM87.89-31.35Q85.89-31.35 84.74-32.48 83.59-33.6 83.59-35.45L83.59-35.45Q83.59-37.75 85.14-39.28 86.69-40.8 88.94-40.8L88.94-40.8Q90.94-40.8 92.09-39.68 93.24-38.55 93.24-36.7L93.24-36.7Q93.24-34.4 91.69-32.88 90.14-31.35 87.89-31.35L87.89-31.35ZM102.89 0.9Q97.99 0.9 95.27-1.93 92.54-4.75 92.54-10.05L92.54-10.05Q92.54-14.55 94.02-18.55 95.49-22.55 98.67-25.05 101.84-27.55 106.64-27.55L106.64-27.55Q111.54-27.55 114.29-24.7 117.04-21.85 117.04-16.55L117.04-16.55Q116.99-12.05 115.52-8.08 114.04-4.1 110.87-1.6 107.69 0.9 102.89 0.9L102.89 0.9ZM103.49-5.3Q106.14-5.3 107.34-9.22 108.54-13.15 108.54-17.5L108.54-17.5Q108.54-19.55 107.94-20.43 107.34-21.3 106.04-21.3L106.04-21.3Q103.39-21.3 102.19-17.4 100.99-13.5 100.99-9.15L100.99-9.15Q100.99-7.1 101.62-6.2 102.24-5.3 103.49-5.3L103.49-5.3ZM146.19-35.65Q152.09-35.65 155.69-31.5L155.69-31.5 151.14-27Q149.99-28.05 148.81-28.6 147.64-29.15 146.19-29.15L146.19-29.15Q143.34-29.15 141.51-26.55 139.69-23.95 138.89-20.18 138.09-16.4 138.09-12.65L138.09-12.65Q138.09-5.85 142.74-5.85L142.74-5.85Q144.29-5.85 145.64-6.53 146.99-7.2 148.89-8.6L148.89-8.6 152.09-3.6Q149.94-1.6 147.19-0.35 144.44 0.9 141.14 0.9L141.14 0.9Q135.59 0.9 132.34-2.63 129.09-6.15 129.09-12.9L129.09-12.9Q129.09-18.75 130.94-23.95 132.79-29.15 136.64-32.4 140.49-35.65 146.19-35.65L146.19-35.65ZM171.58-27.4Q172.78-27.4 173.98-27L173.98-27 171.48-18.8Q170.43-19.1 169.43-19.1L169.43-19.1Q167.48-19.1 166.23-17.23 164.98-15.35 163.93-11.95L163.93-11.95 162.23 0 153.88 0 157.58-26.6 164.78-26.6 164.73-22Q165.98-24.55 167.71-25.98 169.43-27.4 171.58-27.4L171.58-27.4ZM187.28-27.55Q192.53-27.55 197.38-24.8L197.38-24.8 194.98-7.95Q194.88-6.95 194.88-6.6L194.88-6.6Q194.88-5.9 195.13-5.48 195.38-5.05 195.98-4.75L195.98-4.75 193.48 0.75Q191.23 0.55 189.61-0.45 187.98-1.45 187.38-3.3L187.38-3.3Q185.93-1.25 184.21-0.18 182.48 0.9 180.18 0.9L180.18 0.9Q176.48 0.9 174.48-1.78 172.48-4.45 172.48-9.1L172.48-9.1Q172.48-13.75 173.98-17.95 175.48-22.15 178.81-24.85 182.13-27.55 187.28-27.55L187.28-27.55ZM186.73-21.55Q183.88-21.55 182.43-17.73 180.98-13.9 180.98-9L180.98-9Q180.98-6.95 181.53-6.13 182.08-5.3 183.08-5.3L183.08-5.3Q184.83-5.3 186.78-8.4L186.78-8.4 188.63-21.25Q187.63-21.55 186.73-21.55L186.73-21.55ZM214.83-31.85Q213.43-31.85 212.63-31 211.83-30.15 211.53-28.25L211.53-28.25 211.28-26.6 216.88-26.6 215.13-20.75 210.48-20.75 208.08-3.15Q207.48 1.25 205.75 4.03 204.03 6.8 201.6 8.35 199.18 9.9 195.68 11.15L195.68 11.15 193.73 5.05Q196.53 3.95 197.88 2.3 199.23 0.65 199.73-2.8L199.73-2.8 202.18-20.75 198.93-20.75 199.73-26.6 202.98-26.6 203.28-28.75Q203.83-32.9 206.6-35.48 209.38-38.05 214.03-38.05L214.03-38.05Q218.08-38.05 221.18-35.8L221.18-35.8 218.23-30.85Q216.58-31.85 214.83-31.85L214.83-31.85ZM226.48-20.75L224.78-8.6Q224.73-8.3 224.73-7.7L224.73-7.7Q224.73-5.8 226.33-5.8L226.33-5.8Q227.28-5.8 228.68-6.45L228.68-6.45 230.68-1.1Q229.18-0.1 227.28 0.4 225.38 0.9 223.63 0.9L223.63 0.9Q220.08 0.9 218.18-1.03 216.28-2.95 216.28-6.5L216.28-6.5Q216.28-7.55 216.43-8.65L216.43-8.65 218.13-20.75 215.08-20.75 215.88-26.6 219.28-26.6 220.83-32.45 228.23-33.3 227.28-26.6 232.63-26.6 230.83-20.75 226.48-20.75ZM247.17-27.55Q251.47-27.55 253.95-25.5 256.42-23.45 256.42-20.25L256.42-20.25Q256.42-11.25 240.87-9.6L240.87-9.6 240.87-9.55Q240.87-7.3 241.82-6.3 242.77-5.3 244.57-5.3L244.57-5.3Q246.02-5.3 247.4-5.85 248.77-6.4 250.57-7.65L250.57-7.65 253.47-2.75Q248.82 0.9 243.17 0.9L243.17 0.9Q238.07 0.9 235.32-1.9 232.57-4.7 232.57-9.85L232.57-9.85Q232.57-14.4 234.12-18.45 235.67-22.5 238.95-25.03 242.22-27.55 247.17-27.55L247.17-27.55ZM241.32-14.65Q244.97-14.95 246.57-16.48 248.17-18 248.17-20L248.17-20Q248.17-21.95 246.27-21.95L246.27-21.95Q244.37-21.95 243.15-19.88 241.92-17.8 241.32-14.65L241.32-14.65ZM274.42-27.4Q275.62-27.4 276.82-27L276.82-27 274.32-18.8Q273.27-19.1 272.27-19.1L272.27-19.1Q270.32-19.1 269.07-17.23 267.82-15.35 266.77-11.95L266.77-11.95 265.07 0 256.72 0 260.42-26.6 267.62-26.6 267.57-22Q268.82-24.55 270.55-25.98 272.27-27.4 274.42-27.4L274.42-27.4ZM287.17-27.55Q289.87-27.55 292.24-26.63 294.62-25.7 296.32-24.1L296.32-24.1 292.72-19.6Q290.12-21.5 287.47-21.5L287.47-21.5Q286.12-21.5 285.37-20.95 284.62-20.4 284.62-19.5L284.62-19.5Q284.62-18.6 285.49-17.98 286.37-17.35 289.07-16.3L289.07-16.3Q292.02-15.1 293.49-13.33 294.97-11.55 294.97-8.7L294.97-8.7Q294.97-5.95 293.59-3.78 292.22-1.6 289.62-0.35 287.02 0.9 283.47 0.9L283.47 0.9Q280.22 0.9 277.57-0.25 274.92-1.4 273.12-3.35L273.12-3.35 277.37-7.7Q280.22-5.1 283.37-5.1L283.37-5.1Q284.92-5.1 285.77-5.78 286.62-6.45 286.62-7.55L286.62-7.55Q286.62-8.65 285.74-9.35 284.87-10.05 282.27-11.1L282.27-11.1Q279.22-12.3 277.79-14 276.37-15.7 276.37-18.5L276.37-18.5Q276.37-21.05 277.69-23.1 279.02-25.15 281.49-26.35 283.97-27.55 287.17-27.55L287.17-27.55Z" opacity="1" transform="matrix(1,0,0,1,0,0)" fill="#7a310d" class="wordmark-text-0" data-fill-palette-color="quaternary" id="text-0"></path></svg></g></svg></g></svg></g></svg></g><g transform="matrix(1,0,0,1,0,9.190966606427011)"><svg viewBox="0 0 82.94978484484263 76.03730277443907" height="76.03730277443907" width="82.94978484484263"><g><svg xmlns="http://www.w3.org/2000/svg" xmlns:xlink="http://www.w3.org/1999/xlink" version="1.1" x="0" y="0" viewBox="0 1 24 22" style="enable-background:new 0 0 24 24;" xml:space="preserve" height="76.03730277443907" width="82.94978484484263" class="icon-icon-0" data-fill-palette-color="accent" id="icon-0"><g fill="#f4de21" data-fill-palette-color="accent"><path d="M21.5 1h-19C1.122 1 0 2.122 0 3.5v17C0 21.878 1.122 23 2.5 23h19c1.378 0 2.5-1.122 2.5-2.5v-17C24 2.122 22.878 1 21.5 1zM2.5 2h19C22.327 2 23 2.673 23 3.5V5H1V3.5C1 2.673 1.673 2 2.5 2zM21.5 22h-19C1.673 22 1 21.327 1 20.5V6h22v14.5C23 21.327 22.327 22 21.5 22z" fill="#f4de21" data-fill-palette-color="accent"></path><circle cx="2.5" cy="3.5" r="0.50" fill="#f4de21" data-fill-palette-color="accent"></circle><circle cx="4.5" cy="3.5" r="0.50" fill="#f4de21" data-fill-palette-color="accent"></circle><circle cx="6.5" cy="3.5" r="0.50" fill="#f4de21" data-fill-palette-color="accent"></circle><path d="M7.646 15.354C7.744 15.451 7.872 15.5 8 15.5c0.128 0 0.256-0.049 0.353-0.146 0.195-0.195 0.195-0.512 0-0.707L7.707 14l0.646-0.646c0.195-0.195 0.195-0.512 0-0.707s-0.512-0.195-0.707 0L7 13.293l-0.646-0.646c-0.195-0.195-0.512-0.195-0.707 0-0.195 0.195-0.195 0.512 0 0.707L6.292 14l-0.646 0.646c-0.195 0.195-0.195 0.512 0 0.707C5.744 15.451 5.872 15.5 6 15.5s0.256-0.049 0.353-0.146L7 14.708 7.646 15.354z" fill="#f4de21" data-fill-palette-color="accent"></path><path d="M18.353 12.647c-0.195-0.195-0.512-0.195-0.707 0L17 13.293l-0.646-0.646c-0.195-0.195-0.512-0.195-0.707 0s-0.195 0.512 0 0.707L16.292 14l-0.646 0.646c-0.195 0.195-0.195 0.512 0 0.707C15.744 15.451 15.872 15.5 16 15.5s0.256-0.049 0.353-0.146L17 14.708l0.646 0.646C17.744 15.451 17.872 15.5 18 15.5s0.256-0.049 0.353-0.146c0.195-0.195 0.195-0.512 0-0.707L17.707 14l0.646-0.646C18.548 13.159 18.548 12.842 18.353 12.647z" fill="#f4de21" data-fill-palette-color="accent"></path><path d="M17 10c-2.206 0-4 1.794-4 4 0 1.2 0.542 2.266 1.382 3H9.618C10.458 16.266 11 15.2 11 14c0-2.206-1.794-4-4-4s-4 1.794-4 4 1.794 4 4 4h10c2.206 0 4-1.794 4-4S19.206 10 17 10zM4 14c0-1.654 1.346-3 3-3s3 1.346 3 3-1.346 3-3 3S4 15.654 4 14zM17 17c-1.654 0-3-1.346-3-3s1.346-3 3-3 3 1.346 3 3S18.654 17 17 17z" fill="#f4de21" data-fill-palette-color="accent"></path></g></svg></g></svg></g></svg></g><defs></defs></svg><rect width="395.52" height="83.80072989401779" fill="none" stroke="none" visibility="hidden"></rect></g></svg></g></svg>